<svg xmlns="http://www.w3.org/2000/svg" version="1.1" xmlns:xlink="http://www.w3.org/1999/xlink" xmlns:svgjs="http://svgjs.com/svgjs" width="1000.000000pt" height="1000.000000pt"><svg version="1.0" xmlns="http://www.w3.org/2000/svg" width="1000.000000pt" height="1000.000000pt" viewBox="0 0 1000.000000 1000.000000" preserveAspectRatio="xMidYMid meet">
<metadata>
Created by potrace 1.16, written by Peter Selinger 2001-2019
</metadata>
<g transform="translate(0.000000,1000.000000) scale(0.100000,-0.100000)" fill="#000000" stroke="none">
<path d="M9000 9139 c-153 -108 -403 -317 -1464 -1222 l-1279 -1092 -54 -3
c-53 -3 -57 -1 -121 51 -437 354 -941 586 -1437 662 -597 92 -1184 -88 -1602
-488 -307 -294 -502 -684 -580 -1162 -28 -169 -25 -513 5 -704 79 -495 282
-990 574 -1404 42 -58 48 -74 48 -116 l0 -50 -443 -449 c-419 -425 -467 -478
-922 -1011 -435 -510 -502 -593 -728 -907 -137 -190 -248 -346 -246 -348 2 -2
193 129 424 290 l420 293 938 843 939 843 49 3 c48 3 50 2 145 -78 482 -408
1052 -664 1603 -721 138 -14 380 -7 506 16 825 147 1397 738 1552 1605 23 127
26 172 27 370 0 185 -4 251 -23 369 -22 147 -80 386 -125 522 -96 292 -252
603 -437 874 -64 93 -69 104 -69 153 l0 53 714 779 c651 709 1450 1613 1509
1707 96 152 275 453 269 453 -4 -1 -90 -60 -192 -131z m-4862 -1904 c51 -22
89 -60 108 -111 26 -69 15 -305 -19 -401 -74 -209 -209 -407 -421 -618 -205
-205 -395 -334 -586 -401 -91 -31 -285 -44 -360 -24 -57 15 -124 80 -139 135
-18 66 -14 241 9 329 116 456 717 1039 1140 1106 75 12 222 4 268 -15z"></path>
</g>
</svg><style>@media (prefers-color-scheme: light) { :root { filter: none; } }
</style></svg>