<?xml version="1.0" standalone="no"?>
<!DOCTYPE svg PUBLIC "-//W3C//DTD SVG 20010904//EN"
 "http://www.w3.org/TR/2001/REC-SVG-20010904/DTD/svg10.dtd">
<svg version="1.0" xmlns="http://www.w3.org/2000/svg"
 width="512.000000pt" height="512.000000pt" viewBox="0 0 512.000000 512.000000"
 preserveAspectRatio="xMidYMid meet">
<metadata>
Created by potrace 1.14, written by Peter Selinger 2001-2017
</metadata>
<g transform="translate(0.000000,512.000000) scale(0.100000,-0.100000)"
fill="#000000" stroke="none">
<path d="M4715 4794 c-103 -74 -190 -135 -214 -149 -9 -5 -18 -13 -21 -16 -6
-7 -75 -66 -144 -124 -27 -22 -58 -49 -71 -60 -26 -24 -58 -51 -145 -124 -36
-30 -72 -61 -81 -70 -9 -9 -38 -34 -64 -56 -27 -22 -59 -49 -71 -60 -12 -11
-31 -27 -41 -35 -43 -35 -138 -115 -143 -120 -3 -3 -52 -46 -110 -95 -58 -50
-107 -92 -110 -95 -3 -3 -48 -41 -100 -84 -52 -44 -99 -84 -105 -90 -5 -6 -35
-32 -66 -58 l-55 -46 -35 29 c-18 16 -39 33 -46 39 -7 5 -16 10 -22 10 -5 0
-11 4 -13 8 -6 17 -133 96 -227 142 -220 109 -396 153 -606 153 -131 0 -203
-10 -318 -44 -64 -19 -175 -66 -187 -79 -3 -3 -17 -11 -32 -19 -15 -8 -37 -22
-47 -33 -11 -10 -23 -18 -26 -18 -4 0 -12 -6 -19 -12 -7 -7 -38 -37 -69 -65
-30 -29 -66 -67 -78 -85 -13 -18 -26 -35 -29 -38 -25 -21 -118 -206 -136 -270
-50 -180 -57 -227 -58 -370 0 -92 8 -204 19 -264 22 -111 68 -272 100 -341 34
-77 97 -203 113 -227 9 -14 30 -48 46 -75 16 -26 36 -54 43 -62 17 -16 40 10
-242 -276 -115 -118 -248 -260 -295 -315 -47 -56 -96 -114 -110 -128 -14 -15
-41 -47 -60 -71 -19 -23 -44 -53 -55 -65 -23 -26 -100 -115 -142 -165 -45 -54
-391 -536 -388 -540 3 -3 76 45 110 72 20 17 212 149 280 194 39 26 72 49 75
52 3 4 30 23 60 44 31 20 72 52 92 70 20 17 64 57 99 87 34 30 74 66 89 80 14
14 57 53 96 86 38 34 81 73 95 85 26 24 164 149 248 224 49 45 108 97 225 204
77 69 80 71 100 54 11 -10 25 -21 31 -26 5 -4 24 -19 40 -33 120 -103 416
-260 545 -289 8 -1 33 -8 55 -13 167 -45 402 -49 550 -11 114 29 278 101 304
133 8 9 19 16 27 16 14 0 174 155 217 210 25 33 96 169 130 250 17 40 44 146
52 205 3 22 8 56 11 75 6 40 6 233 0 270 -2 14 -7 49 -11 79 -3 30 -8 61 -11
70 -2 9 -11 48 -19 86 -9 39 -20 79 -25 90 -5 11 -22 56 -39 100 -26 72 -81
186 -114 240 -10 17 -89 140 -109 170 -4 6 16 36 43 65 51 55 193 211 237 259
26 28 180 196 222 241 93 101 207 225 220 240 8 9 38 44 65 76 28 32 59 68 70
79 11 12 36 41 56 66 20 24 47 56 60 70 102 112 169 194 169 208 0 6 5 11 10
11 6 0 10 4 10 9 0 4 36 67 80 140 44 72 80 136 80 141 0 6 4 10 9 10 8 0 24
30 19 35 -2 2 -43 -26 -93 -61z"/>
</g>
</svg>
