<?xml version="1.0" standalone="no"?>
<!DOCTYPE svg PUBLIC "-//W3C//DTD SVG 20010904//EN"
 "http://www.w3.org/TR/2001/REC-SVG-20010904/DTD/svg10.dtd">
<svg version="1.0" xmlns="http://www.w3.org/2000/svg"
 width="1000.000000pt" height="1000.000000pt" viewBox="0 0 1000.000000 1000.000000"
 preserveAspectRatio="xMidYMid meet">
<metadata>
Created by potrace 1.14, written by Peter Selinger 2001-2017
</metadata>
<g transform="translate(0.000000,1000.000000) scale(0.100000,-0.100000)"
fill="#000000" stroke="none">
<path d="M9092 9281 c-172 -121 -338 -241 -370 -268 -49 -42 -524 -446 -667
-568 -27 -24 -120 -103 -205 -175 -85 -73 -180 -154 -210 -180 -30 -26 -197
-168 -370 -315 -173 -148 -317 -271 -320 -274 -3 -3 -32 -28 -65 -56 -74 -61
-95 -80 -165 -140 -88 -76 -101 -87 -175 -149 -38 -33 -72 -62 -75 -65 -3 -3
-32 -28 -65 -56 -33 -27 -62 -52 -65 -55 -3 -3 -32 -28 -65 -55 -33 -28 -63
-54 -66 -58 -3 -5 -51 27 -105 70 -261 207 -528 364 -799 472 -193 76 -207 81
-225 81 -9 0 -20 3 -24 7 -3 4 -12 8 -19 9 -7 1 -48 11 -92 23 -89 23 -206 47
-275 56 -25 3 -63 8 -85 11 -73 10 -399 12 -470 3 -186 -23 -284 -44 -433 -94
-409 -137 -749 -406 -980 -778 -43 -68 -126 -232 -150 -297 -52 -137 -108
-339 -127 -460 -4 -25 -9 -53 -11 -63 -25 -136 -25 -622 1 -717 2 -8 6 -33 9
-55 30 -220 118 -529 218 -765 82 -195 213 -432 337 -614 34 -48 61 -91 61
-95 0 -8 -177 -189 -629 -646 -130 -132 -277 -287 -327 -345 -49 -58 -101
-118 -116 -135 -14 -16 -72 -84 -128 -150 -115 -135 -178 -209 -208 -243 -11
-13 -35 -41 -52 -62 -18 -22 -42 -50 -53 -63 -12 -13 -42 -47 -67 -77 -25 -29
-99 -117 -165 -194 -66 -78 -137 -166 -157 -196 -21 -30 -63 -89 -93 -130 -31
-41 -64 -86 -73 -100 -9 -14 -51 -72 -92 -128 -41 -57 -82 -113 -90 -126 -8
-12 -78 -109 -155 -215 -77 -106 -147 -202 -154 -213 -8 -11 20 4 63 33 42 30
85 59 94 64 9 6 21 14 26 18 14 10 453 316 558 389 43 29 86 59 95 66 10 7 86
59 168 116 83 57 157 110 166 117 27 25 194 174 199 179 3 3 43 39 90 80 46
41 94 84 105 95 11 11 58 54 105 95 46 41 91 82 100 90 9 8 52 47 95 85 72 63
109 97 200 180 17 15 59 53 93 84 35 31 78 70 96 86 18 17 68 62 111 100 44
39 86 77 95 85 9 8 36 33 60 54 25 22 83 74 130 117 47 43 96 87 110 99 14 11
41 35 60 53 111 103 218 197 224 197 4 0 50 -36 103 -81 307 -260 622 -443
993 -577 141 -51 335 -102 450 -118 19 -2 44 -6 55 -9 102 -20 454 -27 590
-12 59 7 206 35 280 53 11 3 27 7 35 9 8 2 15 4 15 5 0 1 7 3 15 5 67 13 265
98 390 168 240 132 526 413 656 645 59 105 96 178 119 235 14 34 30 71 35 82
36 79 98 316 116 440 2 17 6 41 9 54 25 123 25 594 0 691 -2 8 -6 40 -10 70
-7 72 -66 331 -99 443 -70 233 -199 521 -334 747 -74 124 -165 263 -190 288
-16 18 -13 23 104 148 56 60 119 128 140 152 21 24 61 67 88 95 26 29 74 81
106 117 32 36 73 81 92 101 40 42 210 227 298 324 35 39 109 119 164 179 56
60 108 117 116 126 22 25 180 199 210 230 58 61 182 202 405 460 266 308 303
351 402 465 57 65 209 297 313 480 10 17 40 67 69 112 28 46 51 85 51 87 0 3
17 31 38 63 39 58 65 103 60 103 -2 -1 -144 -99 -316 -219z"/>
</g>
</svg>
